<mxfile host="app.diagrams.net" modified="2022-01-05T23:57:42.898Z" agent="5.0 (Windows NT 10.0; Win64; x64) AppleWebKit/537.36 (KHTML, like Gecko) Chrome/96.0.4664.110 Safari/537.36" etag="-LR_A_wUwlsFqXYvek9G" version="15.7.3" type="github">
  <diagram id="C5RBs43oDa-KdzZeNtuy" name="Page-1">
    <mxGraphModel dx="1422" dy="762" grid="1" gridSize="10" guides="1" tooltips="1" connect="1" arrows="1" fold="1" page="1" pageScale="1" pageWidth="1169" pageHeight="827" math="0" shadow="0">
      <root>
        <mxCell id="WIyWlLk6GJQsqaUBKTNV-0" />
        <mxCell id="WIyWlLk6GJQsqaUBKTNV-1" parent="WIyWlLk6GJQsqaUBKTNV-0" />
        <mxCell id="E2FCYAH7YPvN61T4Zv1L-0" value="Başla" style="ellipse;whiteSpace=wrap;html=1;" parent="WIyWlLk6GJQsqaUBKTNV-1" vertex="1">
          <mxGeometry x="81" y="20" width="120" height="80" as="geometry" />
        </mxCell>
        <mxCell id="E2FCYAH7YPvN61T4Zv1L-2" value="" style="shape=singleArrow;direction=south;whiteSpace=wrap;html=1;fillColor=#000000;" parent="WIyWlLk6GJQsqaUBKTNV-1" vertex="1">
          <mxGeometry x="131.10000000000002" y="104" width="19.8" height="33" as="geometry" />
        </mxCell>
        <mxCell id="E2FCYAH7YPvN61T4Zv1L-3" value="" style="shape=singleArrow;direction=south;whiteSpace=wrap;html=1;fillColor=#000000;" parent="WIyWlLk6GJQsqaUBKTNV-1" vertex="1">
          <mxGeometry x="131.10000000000002" y="203" width="19.8" height="33" as="geometry" />
        </mxCell>
        <mxCell id="E2FCYAH7YPvN61T4Zv1L-4" value="&lt;div style=&quot;background-color: rgb(255 , 255 , 254) ; font-family: monospace , &amp;#34;consolas&amp;#34; , &amp;#34;courier new&amp;#34; , monospace ; font-size: 14px ; line-height: 19px&quot;&gt;x.isalpha()&amp;nbsp;&lt;/div&gt;&lt;div style=&quot;background-color: rgb(255 , 255 , 254) ; font-family: monospace , &amp;#34;consolas&amp;#34; , &amp;#34;courier new&amp;#34; , monospace ; font-size: 14px ; line-height: 19px&quot;&gt;&lt;font color=&quot;#0000ff&quot;&gt;veya&amp;nbsp;&lt;/font&gt;&lt;/div&gt;&lt;div style=&quot;background-color: rgb(255 , 255 , 254) ; font-family: monospace , &amp;#34;consolas&amp;#34; , &amp;#34;courier new&amp;#34; , monospace ; font-size: 14px ; line-height: 19px&quot;&gt;x.isspace()&lt;/div&gt;" style="rhombus;whiteSpace=wrap;html=1;fillColor=#FFFFFF;" parent="WIyWlLk6GJQsqaUBKTNV-1" vertex="1">
          <mxGeometry x="30" y="240" width="220" height="120" as="geometry" />
        </mxCell>
        <mxCell id="E2FCYAH7YPvN61T4Zv1L-5" value="" style="shape=singleArrow;direction=south;whiteSpace=wrap;html=1;fillColor=#000000;" parent="WIyWlLk6GJQsqaUBKTNV-1" vertex="1">
          <mxGeometry x="131.10000000000002" y="370" width="19.8" height="33" as="geometry" />
        </mxCell>
        <mxCell id="E2FCYAH7YPvN61T4Zv1L-6" value="" style="shape=singleArrow;direction=south;whiteSpace=wrap;html=1;fillColor=#000000;rotation=-90;" parent="WIyWlLk6GJQsqaUBKTNV-1" vertex="1">
          <mxGeometry x="261" y="283.5" width="19.8" height="33" as="geometry" />
        </mxCell>
        <mxCell id="E2FCYAH7YPvN61T4Zv1L-7" value="Hayır" style="text;html=1;strokeColor=none;fillColor=none;align=center;verticalAlign=middle;whiteSpace=wrap;rounded=0;" parent="WIyWlLk6GJQsqaUBKTNV-1" vertex="1">
          <mxGeometry x="82.1" y="366" width="60" height="30" as="geometry" />
        </mxCell>
        <mxCell id="E2FCYAH7YPvN61T4Zv1L-8" value="Evet" style="text;html=1;strokeColor=none;fillColor=none;align=center;verticalAlign=middle;whiteSpace=wrap;rounded=0;" parent="WIyWlLk6GJQsqaUBKTNV-1" vertex="1">
          <mxGeometry x="231" y="270" width="60" height="30" as="geometry" />
        </mxCell>
        <mxCell id="E2FCYAH7YPvN61T4Zv1L-9" value="&quot;Geçersiz değer, tekrar giriş yapınız.&quot;" style="shape=document;whiteSpace=wrap;html=1;boundedLbl=1;fillColor=#FFFFFF;" parent="WIyWlLk6GJQsqaUBKTNV-1" vertex="1">
          <mxGeometry x="82" y="410" width="120" height="80" as="geometry" />
        </mxCell>
        <mxCell id="E2FCYAH7YPvN61T4Zv1L-10" value="&quot;String değerdir&quot;" style="shape=document;whiteSpace=wrap;html=1;boundedLbl=1;fillColor=#FFFFFF;" parent="WIyWlLk6GJQsqaUBKTNV-1" vertex="1">
          <mxGeometry x="293" y="270" width="77" height="80" as="geometry" />
        </mxCell>
        <mxCell id="E2FCYAH7YPvN61T4Zv1L-13" value="" style="endArrow=none;html=1;rounded=0;strokeWidth=4;" parent="WIyWlLk6GJQsqaUBKTNV-1" edge="1">
          <mxGeometry width="50" height="50" relative="1" as="geometry">
            <mxPoint x="12" y="446" as="sourcePoint" />
            <mxPoint x="82" y="446" as="targetPoint" />
          </mxGeometry>
        </mxCell>
        <mxCell id="E2FCYAH7YPvN61T4Zv1L-14" value="" style="endArrow=none;html=1;rounded=0;strokeWidth=4;" parent="WIyWlLk6GJQsqaUBKTNV-1" edge="1">
          <mxGeometry width="50" height="50" relative="1" as="geometry">
            <mxPoint x="10" y="160" as="sourcePoint" />
            <mxPoint x="10" y="448" as="targetPoint" />
          </mxGeometry>
        </mxCell>
        <mxCell id="E2FCYAH7YPvN61T4Zv1L-15" value="" style="endArrow=classic;html=1;rounded=0;strokeWidth=4;entryX=0;entryY=0.5;entryDx=0;entryDy=0;" parent="WIyWlLk6GJQsqaUBKTNV-1" edge="1">
          <mxGeometry width="50" height="50" relative="1" as="geometry">
            <mxPoint x="10" y="162" as="sourcePoint" />
            <mxPoint x="91" y="163" as="targetPoint" />
          </mxGeometry>
        </mxCell>
        <mxCell id="E2FCYAH7YPvN61T4Zv1L-16" value="&lt;div style=&quot;background-color: rgb(255 , 255 , 254) ; font-family: monospace , &amp;#34;consolas&amp;#34; , &amp;#34;courier new&amp;#34; , monospace ; line-height: 19px ; font-size: 15px&quot;&gt;&lt;div&gt;index&amp;nbsp;-=&amp;nbsp;&lt;span style=&quot;color: #09885a&quot;&gt;1&lt;/span&gt;&lt;/div&gt;&lt;div&gt;ters_yazi&amp;nbsp;+=&amp;nbsp;&lt;/div&gt;&lt;div&gt;userInput[index]&lt;/div&gt;&lt;/div&gt;" style="shape=hexagon;perimeter=hexagonPerimeter2;whiteSpace=wrap;html=1;fixedSize=1;fillColor=#FFFFFF;" parent="WIyWlLk6GJQsqaUBKTNV-1" vertex="1">
          <mxGeometry x="570" y="265" width="191.75" height="70" as="geometry" />
        </mxCell>
        <mxCell id="E2FCYAH7YPvN61T4Zv1L-18" value="" style="shape=singleArrow;direction=south;whiteSpace=wrap;html=1;fillColor=#000000;rotation=-90;" parent="WIyWlLk6GJQsqaUBKTNV-1" vertex="1">
          <mxGeometry x="380.2" y="283.5" width="19.8" height="33" as="geometry" />
        </mxCell>
        <mxCell id="E2FCYAH7YPvN61T4Zv1L-20" value="" style="shape=singleArrow;direction=south;whiteSpace=wrap;html=1;fillColor=#000000;rotation=-90;" parent="WIyWlLk6GJQsqaUBKTNV-1" vertex="1">
          <mxGeometry x="776.88" y="287.13" width="19.8" height="27.75" as="geometry" />
        </mxCell>
        <mxCell id="E2FCYAH7YPvN61T4Zv1L-29" value="Bitti" style="ellipse;whiteSpace=wrap;html=1;" parent="WIyWlLk6GJQsqaUBKTNV-1" vertex="1">
          <mxGeometry x="984.9" y="261.01" width="120" height="80" as="geometry" />
        </mxCell>
        <mxCell id="E2FCYAH7YPvN61T4Zv1L-35" value="Sonucu ekrana yazdır" style="rounded=0;whiteSpace=wrap;html=1;fillColor=#FFFFFF;" parent="WIyWlLk6GJQsqaUBKTNV-1" vertex="1">
          <mxGeometry x="813.1" y="275" width="120" height="60" as="geometry" />
        </mxCell>
        <mxCell id="E2FCYAH7YPvN61T4Zv1L-40" value="" style="shape=singleArrow;direction=south;whiteSpace=wrap;html=1;fillColor=#000000;rotation=-90;" parent="WIyWlLk6GJQsqaUBKTNV-1" vertex="1">
          <mxGeometry x="952.9" y="284.51" width="19.8" height="33" as="geometry" />
        </mxCell>
        <mxCell id="E2FCYAH7YPvN61T4Zv1L-41" value="&lt;br&gt;&lt;br&gt;&lt;font face=&quot;helvetica&quot;&gt;String ifade girin&lt;/font&gt;" style="shape=manualInput;whiteSpace=wrap;html=1;fillColor=#FFFFFF;" parent="WIyWlLk6GJQsqaUBKTNV-1" vertex="1">
          <mxGeometry x="96" y="120" width="120" height="80" as="geometry" />
        </mxCell>
        <mxCell id="JP6dbUzr3SBh8aPugIcf-8" value="&lt;div style=&quot;background-color: rgb(255 , 255 , 254) ; font-family: monospace , &amp;#34;consolas&amp;#34; , &amp;#34;courier new&amp;#34; , monospace ; font-size: 14px ; line-height: 19px&quot;&gt;&lt;div&gt;ters_yazi&amp;nbsp;=&amp;nbsp;&lt;span style=&quot;color: #a31515&quot;&gt;&#39;&#39;&lt;/span&gt;&lt;/div&gt;&lt;div&gt;index&amp;nbsp;=&amp;nbsp;&lt;/div&gt;&lt;div&gt;&lt;span style=&quot;color: rgb(121 , 94 , 38)&quot;&gt;len&lt;/span&gt;(userInput)&lt;/div&gt;&lt;/div&gt;" style="rounded=0;whiteSpace=wrap;html=1;fillColor=#FFFFFF;" parent="WIyWlLk6GJQsqaUBKTNV-1" vertex="1">
          <mxGeometry x="410" y="270.75" width="115" height="75.25" as="geometry" />
        </mxCell>
        <mxCell id="JP6dbUzr3SBh8aPugIcf-11" value="" style="shape=singleArrow;direction=south;whiteSpace=wrap;html=1;fillColor=#000000;rotation=-90;" parent="WIyWlLk6GJQsqaUBKTNV-1" vertex="1">
          <mxGeometry x="535.7" y="284.5" width="19.8" height="33" as="geometry" />
        </mxCell>
      </root>
    </mxGraphModel>
  </diagram>
</mxfile>
